<svg xmlns="http://www.w3.org/2000/svg" width="640" height="640" viewBox="0 0 640 640">
<g>
<path d="M 84.00,427.30 C81.53,427.06 79.12,426.50 78.66,426.04 C78.19,425.59 81.88,406.60 86.86,383.86 C91.83,361.11 99.31,326.78 103.47,307.58 C107.64,288.37 111.54,272.06 112.14,271.33 C112.98,270.32 117.48,270.00 131.06,270.00 C140.86,270.00 149.13,270.40 149.44,270.90 C149.74,271.39 147.29,284.23 143.99,299.44 C140.70,314.65 138.00,327.97 138.00,329.05 C138.00,330.89 138.78,331.00 152.02,331.00 C165.62,331.00 166.07,330.93 166.97,328.75 C167.48,327.51 170.46,314.35 173.61,299.50 C176.75,284.65 179.75,271.94 180.28,271.25 C180.99,270.33 186.01,270.00 199.15,270.00 C214.47,270.00 217.15,270.23 217.66,271.56 C218.13,272.79 206.19,329.88 198.43,363.50 C197.67,366.80 194.54,380.98 191.48,395.00 C188.41,409.02 185.44,421.96 184.87,423.75 L 183.84,427.00 L 164.92,427.00 C151.83,427.00 146.00,426.66 146.00,425.90 C146.00,425.30 148.95,411.50 152.55,395.24 C157.73,371.86 158.83,365.51 157.80,364.85 C155.64,363.48 132.61,363.82 130.82,365.25 C129.79,366.08 127.18,376.48 123.08,396.00 C119.68,412.23 116.45,425.95 115.90,426.50 C114.89,427.51 92.28,428.08 84.00,427.30 M 212.01,427.30 C206.24,427.09 201.20,426.60 200.80,426.20 C199.83,425.23 218.62,344.23 220.47,341.40 C221.27,340.18 228.13,332.78 235.71,324.96 C244.12,316.29 249.50,309.96 249.50,308.73 C249.50,307.15 247.81,306.08 241.38,303.61 C232.77,300.31 230.56,298.91 228.80,295.63 C227.02,292.30 225.12,284.05 226.01,283.50 C226.46,283.21 236.21,286.85 247.67,291.57 C269.25,300.46 300.19,312.77 312.68,317.44 C316.62,318.91 320.26,320.65 320.77,321.31 C321.27,321.96 322.90,327.13 324.39,332.79 L 327.11,343.08 L 324.58,353.79 C320.55,370.77 318.42,380.09 313.54,402.00 C311.02,413.27 308.53,423.51 308.00,424.75 C307.06,426.97 306.78,427.00 288.52,427.00 L 270.00,427.00 L 270.00,424.67 C270.00,423.38 271.57,415.30 273.50,406.71 C275.43,398.12 277.00,390.84 277.00,390.54 C277.00,389.39 248.13,389.99 247.40,391.16 C247.01,391.80 245.02,399.91 242.99,409.18 C240.96,418.45 238.97,426.37 238.57,426.77 C237.72,427.61 226.90,427.83 212.01,427.30 M 285.00,354.02 C286.31,353.19 286.21,351.98 284.19,344.29 C279.36,325.94 278.96,324.86 276.98,325.19 C274.58,325.59 254.97,351.75 255.68,353.60 C256.10,354.71 259.07,355.00 269.86,354.98 C277.36,354.98 284.18,354.54 285.00,354.02 M 383.25,427.24 L 323.00,426.98 L 323.00,424.87 C323.00,420.40 329.15,393.43 330.48,392.10 C331.61,390.96 339.92,390.59 374.67,390.10 L 417.47,389.50 L 419.83,378.73 C421.13,372.81 421.94,367.29 421.63,366.48 C421.15,365.22 416.91,365.00 393.48,365.00 C371.10,365.00 365.36,364.72 363.04,363.52 C359.93,361.91 358.86,359.58 354.09,344.00 C352.49,338.77 350.88,333.76 350.52,332.85 C350.16,331.94 350.27,330.95 350.76,330.65 C351.26,330.34 356.58,331.00 362.58,332.11 C375.90,334.57 396.70,334.33 403.88,331.64 C407.35,330.34 412.04,330.00 426.72,330.00 C447.85,330.00 450.82,330.75 453.93,336.89 C456.33,341.62 461.00,358.87 461.00,363.02 C461.00,366.27 450.87,415.03 448.67,422.40 C447.95,424.79 446.73,426.53 445.50,426.90 C444.40,427.23 416.39,427.38 383.25,427.24 M 479.75,427.23 L 463.00,426.95 L 463.00,424.46 C463.00,423.08 464.55,415.11 466.45,406.73 C468.34,398.35 471.51,383.85 473.49,374.50 C475.47,365.15 478.17,352.55 479.49,346.50 C484.47,323.71 489.98,298.06 492.60,285.50 C494.10,278.35 495.75,271.94 496.28,271.25 C496.99,270.33 502.10,270.00 515.62,270.00 L 534.00,270.00 L 534.00,272.42 C534.00,273.76 528.87,298.40 522.60,327.17 C508.36,392.48 509.14,388.60 510.03,390.05 C510.60,390.98 516.40,391.10 534.64,390.59 C549.61,390.17 559.04,390.28 559.95,390.89 C561.19,391.73 561.21,392.82 560.07,398.68 C557.62,411.35 554.16,426.17 553.49,426.84 C552.82,427.51 510.52,427.73 479.75,427.23 M 362.50,325.59 C348.16,322.37 328.76,316.58 311.80,310.44 C294.08,304.03 293.00,303.48 293.00,300.92 C293.00,298.32 297.33,294.00 299.93,294.00 C301.05,294.00 306.58,295.85 312.23,298.11 C326.38,303.76 353.21,313.05 366.84,317.02 C375.99,319.67 378.39,320.76 379.24,322.63 C380.61,325.63 378.74,328.03 375.13,327.91 C373.68,327.87 368.00,326.82 362.50,325.59 M 397.43,320.62 C394.64,319.32 384.34,315.69 374.53,312.55 C364.72,309.41 353.01,305.14 348.49,303.05 L 340.29,299.26 L 336.39,291.38 L 332.50,283.50 L 326.10,283.86 C320.18,284.20 319.76,284.09 320.49,282.36 C323.81,274.58 324.27,271.80 323.12,266.68 C320.93,256.88 313.48,246.83 309.54,248.35 C308.73,248.66 307.40,250.51 306.58,252.46 C305.47,255.12 304.51,256.00 302.70,256.00 C299.78,256.00 287.73,248.47 271.00,236.19 C264.12,231.15 258.05,227.17 257.50,227.34 C254.18,228.41 256.79,231.42 268.70,240.22 C292.25,257.63 297.88,261.00 303.45,261.00 C306.97,261.00 311.00,258.26 311.00,255.88 C311.00,253.80 314.26,257.37 316.14,261.50 C318.32,266.30 318.54,273.88 316.58,276.56 C315.50,278.04 314.02,278.48 310.33,278.42 C304.71,278.33 301.05,276.62 291.71,269.75 C285.37,265.09 284.81,264.86 283.13,266.38 C282.15,267.27 280.91,268.00 280.39,268.00 C278.60,268.00 240.68,247.87 234.75,243.77 C233.24,242.72 232.00,241.07 232.00,240.10 C232.00,237.84 242.43,222.88 249.07,215.61 C253.57,210.69 254.66,210.00 257.99,210.00 C263.35,210.00 265.80,212.44 267.01,218.97 C268.20,225.32 271.62,229.46 278.59,232.94 C284.34,235.81 288.88,235.82 302.70,233.02 C314.56,230.62 317.31,230.76 321.12,233.98 L 323.50,235.98 L 320.24,238.74 C316.53,241.89 316.05,244.57 319.05,245.52 C321.13,246.18 322.39,245.50 327.21,241.15 C329.47,239.11 330.18,238.91 331.46,239.97 C333.70,241.83 333.43,242.43 329.00,245.50 C326.22,247.43 325.00,249.00 325.00,250.67 C325.00,254.46 327.70,254.60 332.70,251.08 C337.19,247.91 340.00,247.63 340.00,250.34 C340.00,251.11 338.43,252.81 336.52,254.12 C332.47,256.89 331.51,258.71 333.11,260.63 C334.87,262.76 337.21,262.27 341.26,258.94 C344.91,255.93 347.00,255.77 347.00,258.49 C347.00,259.24 345.39,261.18 343.42,262.81 C340.80,264.96 339.92,266.40 340.17,268.12 C340.65,271.56 343.32,271.54 347.28,268.05 C351.10,264.70 353.74,264.16 354.65,266.54 C355.03,267.53 353.90,269.24 351.45,271.36 C348.80,273.65 347.84,275.15 348.29,276.32 C349.16,278.58 352.17,278.44 355.27,276.00 C358.46,273.49 360.22,273.48 362.43,275.93 C365.03,278.79 364.00,281.25 359.49,282.97 C353.56,285.24 353.00,285.81 353.00,289.49 C353.00,292.04 353.51,293.03 355.10,293.53 C357.47,294.29 358.64,293.42 359.17,290.51 C359.43,289.05 360.94,288.13 364.76,287.11 L 370.00,285.71 L 380.62,292.11 C400.01,303.77 409.75,313.80 406.92,319.19 C405.77,321.37 404.12,322.96 403.00,322.97 C402.73,322.98 400.22,321.92 397.43,320.62 M 405.39,302.99 C400.03,298.30 395.66,295.24 376.72,282.91 C368.78,277.75 368.37,275.76 374.50,272.29 L 378.50,270.02 L 429.49,270.26 C477.94,270.49 480.49,270.59 480.82,272.32 C481.32,274.92 474.99,303.64 473.45,305.74 C472.28,307.34 469.40,307.53 441.69,307.79 L 411.21,308.08 L 405.39,302.99 M 255.00,287.16 C224.60,275.04 222.22,273.29 223.51,263.94 C223.88,261.22 224.98,258.01 225.95,256.81 L 227.71,254.64 L 232.10,257.22 C234.52,258.64 238.53,261.56 241.00,263.71 C243.47,265.86 247.97,268.66 251.00,269.93 C261.29,274.27 269.74,278.89 270.37,280.53 C272.24,285.39 269.97,291.03 266.18,290.97 C265.26,290.96 260.23,289.24 255.00,287.16 M 321.50,227.89 C318.95,226.21 317.08,225.96 309.00,226.21 C299.60,226.50 299.50,226.48 299.50,224.14 C299.50,222.30 300.94,220.91 305.98,217.86 C309.54,215.70 313.08,214.07 313.83,214.22 C315.32,214.52 326.68,230.05 325.32,229.93 C324.87,229.89 323.15,228.97 321.50,227.89 Z" fill="rgba(0,0,0,1)"/>
</g>
</svg>